<svg class="svg-eye-crossed" width="21" height="18" viewBox="0 0 21 18" fill="none" xmlns="http://www.w3.org/2000/svg">
    <path d="M0.0777512 9.23629C0.243128 8.98092 4.21745 3 10.5 3C15.891 3 20.6948 8.94658 20.897 9.20008C21.0343 9.37279 21.0343 9.62629 20.897 9.79992C20.6948 10.0534 15.891 16 10.5 16C5.10906 16 0.305269 10.0534 0.10314 9.79992C-0.0237637 9.64022 -0.0351257 9.40901 0.0777512 9.23629ZM10.5 15.0714C14.8217 15.0714 18.9308 10.6979 19.9747 9.50002C18.9325 8.30125 14.8278 3.9286 10.5 3.9286C5.44334 3.9286 1.87414 8.29568 1.00263 9.47495C2.00892 10.6347 6.1416 15.0714 10.5 15.0714Z" fill="white"/>
    <path d="M10.5 5.78571C12.4303 5.78571 14.0001 7.45157 14.0001 9.49998C14.0001 11.5484 12.4303 13.2142 10.5 13.2142C8.56977 13.2142 6.99999 11.5484 6.99999 9.49998C6.99999 7.45157 8.56977 5.78571 10.5 5.78571ZM10.5 12.2857C11.9473 12.2857 13.1251 11.0359 13.1251 9.50002C13.1251 7.96418 11.9473 6.71431 10.5 6.71431C9.05278 6.71431 7.875 7.96418 7.875 9.50002C7.875 11.0359 9.05278 12.2857 10.5 12.2857Z" fill="white"/>
    <line x1="2" y1="18.1515" x2="19.1515" y2="1" stroke="white" stroke-width="1.2" stroke-linecap="round" stroke-linejoin="round"/>
</svg>